# xmcd
#
# Track frame offsets:
#	150
#	12000
#	24939
#	40372
#	54101
#	76121
#	89391
#	104909
#	117573
#	132142
#
# Disc length: 1988 seconds
#
# Revision: 0
# Processed by: cddbd v1.5.2PL0 Copyright (c) Steve Scherf et al.
# Submitted via: audiograbber 1.83.01
#
DISCID=7407c20a
DTITLE=Emmylou Harris - Thirteen
DYEAR=1986
DGENRE=Country
TTITLE0=Mystery Train
TTITLE1=You're Free To Go
TTITLE2=Sweetheart Of The Pines
TTITLE3=Just Someone I Used To Know
TTITLE4=My Father's House
TTITLE5=Lacassine Special
TTITLE6=Today I Started Loving You Again
TTITLE7=When I Was Yours
TTITLE8=I Had My Heart Set On You
TTITLE9=Your Long Journey
EXTD=
EXTT0=
EXTT1=
EXTT2=
EXTT3=
EXTT4=
EXTT5=
EXTT6=
EXTT7=
EXTT8=
EXTT9=
PLAYORDER=
